<?xml version="1.0" standalone="no"?>
<!DOCTYPE svg PUBLIC "-//W3C//DTD SVG 20010904//EN"
 "http://www.w3.org/TR/2001/REC-SVG-20010904/DTD/svg10.dtd">
<svg version="1.0" xmlns="http://www.w3.org/2000/svg"
 width="300.000000pt" height="300.000000pt" viewBox="0 0 300.000000 300.000000"
 preserveAspectRatio="xMidYMid meet">
<metadata>
Created by potrace 1.11, written by Peter Selinger 2001-2013
</metadata>
<g transform="translate(0.000000,300.000000) scale(0.100000,-0.100000)"
fill="#000000" stroke="none">
<path d="M2040 2239 c0 -6 8 -23 19 -37 29 -42 61 -109 61 -130 0 -10 7 -27
15 -38 14 -18 16 -18 45 14 16 18 30 39 30 48 0 34 -33 74 -94 113 -71 44 -76
46 -76 30z"/>
<path d="M1155 2210 l-29 -30 -441 0 -440 0 -37 25 c-20 14 -39 25 -42 25 -4
0 -6 -290 -6 -645 l0 -644 42 18 c41 17 43 20 46 64 l3 47 445 0 444 0 0 -55
c0 -61 11 -68 60 -41 l25 14 -4 569 -3 569 27 18 c26 17 26 18 8 38 -10 11
-30 28 -44 39 -26 18 -26 18 -54 -11z m-15 -585 l0 -525 -445 0 -445 0 0 525
0 525 445 0 445 0 0 -525z"/>
<path d="M655 2003 l0 -118 -178 -5 -179 -5 24 -22 c20 -19 28 -21 63 -13 22
5 93 10 158 10 l118 0 -3 -97 -3 -98 -62 -3 c-54 -3 -68 1 -100 23 l-38 25 -3
-256 c-1 -142 0 -259 2 -262 3 -2 20 4 38 15 28 16 33 26 36 61 l3 42 175 0
174 0 0 -55 c0 -60 7 -65 55 -43 l25 11 0 196 c0 188 1 197 21 209 24 15 17
28 -33 64 l-29 20 -28 -26 c-25 -24 -34 -27 -92 -24 l-64 3 -3 98 -3 97 188 0
187 0 -49 50 -48 49 -39 -35 -39 -35 -97 3 -97 3 -3 66 c-3 62 -1 68 23 87
l26 21 -60 30 c-33 17 -62 31 -63 31 -2 0 -3 -53 -3 -117z m225 -528 l0 -145
-175 0 -175 0 0 145 0 145 175 0 175 0 0 -145z"/>
<path d="M1661 2012 c-14 -48 -34 -83 -67 -122 l-46 -54 22 -18 c27 -22 52
-23 89 -3 32 16 41 39 41 108 l0 47 445 0 c245 0 445 -3 445 -7 0 -3 -16 -35
-35 -69 -21 -38 -30 -66 -24 -70 6 -3 34 16 62 44 54 51 84 70 124 81 23 6 23
7 -19 58 -24 29 -48 52 -54 52 -5 1 -23 -13 -39 -29 l-29 -30 -435 2 -436 3
-3 38 c-2 20 -7 37 -12 37 -4 0 -17 -30 -29 -68z"/>
<path d="M2513 1769 l-42 -39 -432 0 -432 0 22 -24 c19 -20 27 -22 59 -15 20
5 121 9 225 9 l187 0 0 -291 0 -290 -60 32 c-66 35 -144 105 -183 165 -26 39
-26 39 -11 99 9 33 25 70 37 82 11 13 19 25 16 27 -9 8 -109 56 -117 56 -5 0
-13 -37 -17 -82 -16 -184 -79 -341 -189 -470 -36 -42 -62 -78 -59 -82 10 -9
92 55 152 120 35 37 76 97 105 153 l48 92 31 -48 c17 -26 61 -78 97 -114 120
-121 233 -153 600 -173 l95 -5 17 30 c11 18 36 38 63 50 25 11 44 23 41 27 -2
4 -71 3 -153 -2 -140 -8 -373 3 -416 20 -15 5 -17 25 -17 150 l0 144 217 0
217 0 -49 50 c-27 28 -54 50 -60 50 -6 0 -26 -16 -45 -35 l-34 -36 -121 3
-120 3 -3 137 -3 138 241 2 241 3 -53 52 -53 52 -42 -40z"/>
</g>
</svg>
